<svg width="189" height="116" viewBox="0 0 189 116" fill="none" xmlns="http://www.w3.org/2000/svg">
<path d="M5 34.0992C5 34.0992 18.9826 16.4078 37.7143 15.4707C61.6479 14.2768 48.6024 115.769 20.4095 108.989C-8.63848 102.003 47.2893 7.62696 76.6444 15.4707C100.779 21.9219 96.3741 111.507 72.3188 109.285C40.4145 106.339 90.9976 11.2378 123.145 15.4707C152.201 19.2985 146.549 119.287 116.387 109.323C85.5125 99.1228 124.294 31.1263 183.02 15.4707" stroke="white" stroke-width="10" stroke-linecap="round" stroke-linejoin="round"/>
<path d="M5 34.0992C5 34.0992 18.9826 16.4078 37.7143 15.4707C61.6479 14.2768 48.6024 115.769 20.4095 108.989C-8.63848 102.003 47.2893 7.62696 76.6444 15.4707C100.779 21.9219 96.3741 111.507 72.3188 109.285C40.4145 106.339 90.9976 11.2378 123.145 15.4707C152.201 19.2985 146.549 119.287 116.387 109.323C85.5125 99.1228 124.294 31.1263 183.02 15.4707" stroke="url(#paint0_linear_77_2798)" stroke-width="10" stroke-linecap="round" stroke-linejoin="round"/>
<path d="M5 34.0992C5 34.0992 18.9826 16.4078 37.7143 15.4707C61.6479 14.2768 48.6024 115.769 20.4095 108.989C-8.63848 102.003 47.2893 7.62696 76.6444 15.4707C100.779 21.9219 96.3741 111.507 72.3188 109.285C40.4145 106.339 90.9976 11.2378 123.145 15.4707C152.201 19.2985 146.549 119.287 116.387 109.323C85.5125 99.1228 124.294 31.1263 183.02 15.4707" stroke="url(#paint1_linear_77_2798)" stroke-width="10" stroke-linecap="round" stroke-linejoin="round"/>
<path fill-rule="evenodd" clip-rule="evenodd" d="M143.071 3.48292C143.78 0.948518 146.409 -0.531471 148.944 0.177271L185.417 10.377C186.758 10.7521 187.868 11.6952 188.455 12.9583C189.042 14.2214 189.047 15.678 188.468 16.945L171.91 53.2119C170.817 55.6058 167.99 56.6604 165.596 55.5674C163.202 54.4744 162.148 51.6477 163.241 49.2538L177.485 18.0546L146.377 9.35515C143.843 8.6464 142.363 6.01732 143.071 3.48292Z" fill="white"/>
<path fill-rule="evenodd" clip-rule="evenodd" d="M143.071 3.48292C143.78 0.948518 146.409 -0.531471 148.944 0.177271L185.417 10.377C186.758 10.7521 187.868 11.6952 188.455 12.9583C189.042 14.2214 189.047 15.678 188.468 16.945L171.91 53.2119C170.817 55.6058 167.99 56.6604 165.596 55.5674C163.202 54.4744 162.148 51.6477 163.241 49.2538L177.485 18.0546L146.377 9.35515C143.843 8.6464 142.363 6.01732 143.071 3.48292Z" fill="url(#paint2_linear_77_2798)"/>
<path fill-rule="evenodd" clip-rule="evenodd" d="M143.071 3.48292C143.78 0.948518 146.409 -0.531471 148.944 0.177271L185.417 10.377C186.758 10.7521 187.868 11.6952 188.455 12.9583C189.042 14.2214 189.047 15.678 188.468 16.945L171.91 53.2119C170.817 55.6058 167.99 56.6604 165.596 55.5674C163.202 54.4744 162.148 51.6477 163.241 49.2538L177.485 18.0546L146.377 9.35515C143.843 8.6464 142.363 6.01732 143.071 3.48292Z" fill="url(#paint3_linear_77_2798)"/>
<defs>
<linearGradient id="paint0_linear_77_2798" x1="5" y1="62.5141" x2="183.02" y2="62.5141" gradientUnits="userSpaceOnUse">
<stop stop-color="#A1C4FD"/>
<stop offset="1" stop-color="#C2E9FB"/>
</linearGradient>
<linearGradient id="paint1_linear_77_2798" x1="5" y1="62.5141" x2="183.02" y2="62.5141" gradientUnits="userSpaceOnUse">
<stop stop-color="#4FACFE"/>
<stop offset="1" stop-color="#00F2FE"/>
</linearGradient>
<linearGradient id="paint2_linear_77_2798" x1="147.66" y1="27.9995" x2="184.134" y2="27.9995" gradientUnits="userSpaceOnUse">
<stop stop-color="#A1C4FD"/>
<stop offset="1" stop-color="#C2E9FB"/>
</linearGradient>
<linearGradient id="paint3_linear_77_2798" x1="15.2384" y1="81.3489" x2="189.028" y2="15.4332" gradientUnits="userSpaceOnUse">
<stop stop-color="#4FACFE"/>
<stop offset="1" stop-color="#00F2FE"/>
</linearGradient>
</defs>
</svg>
