<svg width="210" height="24" viewBox="0 0 210 24" fill="none" xmlns="http://www.w3.org/2000/svg">
<path d="M65.1684 11.9755C65.1684 8.86017 64.0251 7.65976 61.7672 7.65976C59.1092 7.65976 58.1088 9.17456 58.1088 12.9187V20.5499H55.6509V11.804C55.6509 8.86017 54.5076 7.65976 52.2497 7.65976C49.5916 7.65976 48.5913 9.17456 48.5913 12.9187V20.5499H46.1047V6.03063H48.4484V8.5172H48.7342C49.363 6.63084 50.8206 5.68766 53.1929 5.68766C55.6509 5.68766 57.0513 6.74516 57.7087 8.5172H58.0803C58.6805 6.63084 60.3668 5.68766 62.7104 5.68766C66.3116 5.68766 67.6264 7.91699 67.6264 11.5468V20.5499H65.1684V11.9755Z" fill="#121212"/>
<path d="M72.5776 3.00103C71.463 3.00103 70.8342 2.45798 70.8342 1.5148C70.8342 0.543043 71.463 0 72.549 0C73.6637 0 74.2925 0.543043 74.2925 1.48622C74.2925 2.45798 73.6637 3.00103 72.5776 3.00103ZM71.32 20.5213V6.03063H73.8066V20.5213H71.32Z" fill="#121212"/>
<path d="M87.9324 12.0041C87.9324 9.00308 86.8463 7.65976 84.3598 7.65976C81.4731 7.65976 80.1869 9.40321 80.1869 13.2903V20.5213H77.7004V6.03063H80.044V8.60294H80.3298C81.0444 6.63084 82.7021 5.68766 85.16 5.68766C88.6184 5.68766 90.419 7.65976 90.419 11.3467V20.5213H87.9324V12.0041Z" fill="#121212"/>
<path d="M99.584 20.8929C95.7255 20.8929 93.1246 17.949 93.1246 13.5761V12.9759C93.1246 8.63152 95.7255 5.68766 99.584 5.68766C102.156 5.68766 103.642 6.88807 104.214 8.34571H104.528V0.314394H106.986V20.5213H104.614V18.1205H104.3C103.785 19.6353 102.185 20.8929 99.584 20.8929ZM95.5826 13.2617C95.5826 16.8057 97.2975 18.8922 100.098 18.8922C102.899 18.8922 104.528 16.8057 104.528 13.2617C104.528 9.74619 102.899 7.65976 100.098 7.65976C97.2975 7.65976 95.5826 9.74619 95.5826 13.2617Z" fill="#121212"/>
<path d="M116.415 20.95C112.414 20.95 109.984 18.9493 109.956 15.5768H112.271C112.442 17.6632 113.9 19.0351 116.387 19.0351C118.644 19.0351 119.988 18.0919 119.988 16.6628C119.988 14.8622 118.216 14.3478 115.472 13.7761C112.128 13.0902 110.156 12.147 110.156 9.66045C110.156 7.11672 112.299 5.60192 115.901 5.60192C119.445 5.60192 121.674 7.2882 121.817 10.0606H119.473C119.245 8.34571 117.901 7.51685 115.901 7.51685C113.814 7.51685 112.528 8.28855 112.528 9.51754C112.528 10.9466 114.157 11.3753 116.329 11.8326C120.074 12.6043 122.417 13.6332 122.417 16.5485C122.417 19.2923 120.159 20.95 116.415 20.95Z" fill="#121212"/>
<path d="M144.437 11.9755C144.437 8.86017 143.293 7.65976 141.035 7.65976C138.377 7.65976 137.377 9.17456 137.377 12.9187V20.5499H134.919V11.804C134.919 8.86017 133.776 7.65976 131.518 7.65976C128.86 7.65976 127.859 9.17456 127.859 12.9187V20.5499H125.373V6.03063H127.717V8.5172H128.002C128.631 6.63084 130.089 5.68766 132.461 5.68766C134.919 5.68766 136.319 6.74516 136.977 8.5172H137.348C137.949 6.63084 139.635 5.68766 141.979 5.68766C145.58 5.68766 146.895 7.91699 146.895 11.5468V20.5499H144.437V11.9755Z" fill="#121212"/>
<path d="M156.905 20.95C152.56 20.95 149.645 17.8632 149.645 13.2903V13.0044C149.645 8.57436 152.56 5.60192 156.905 5.60192C161.278 5.60192 164.25 8.57436 164.25 12.9759V13.2617C164.25 17.8632 161.278 20.95 156.905 20.95ZM152.103 13.1759C152.103 16.8057 153.904 18.9493 156.933 18.9208C159.963 18.9208 161.792 16.7772 161.792 13.1474C161.792 9.66045 159.963 7.63118 156.933 7.63118C153.904 7.63118 152.103 9.66045 152.103 13.1759Z" fill="#121212"/>
<path d="M170.684 20.5213L165.853 6.03063H168.569C169.855 10.1463 171.17 14.2906 172.456 18.6349H173.399C174.685 14.2906 175.971 10.1463 177.286 6.03063H179.915L175.114 20.5213H170.684Z" fill="#121212"/>
<path d="M188.864 20.9786C184.492 20.9786 181.548 17.8918 181.548 13.2903V13.033C181.548 8.60294 184.406 5.60192 188.636 5.60192C193.066 5.60192 195.638 8.68868 195.524 13.919H183.977C184.206 17.2345 186.121 18.9779 188.807 18.9779C191.18 18.9779 192.923 17.8061 193.295 15.8626H195.638C195.209 18.9208 192.494 20.95 188.864 20.9786ZM184.034 11.9755H193.009C192.866 9.20315 191.237 7.57402 188.664 7.57402C186.121 7.57402 184.406 9.20315 184.034 11.9755Z" fill="#121212"/>
<path d="M198.556 20.5213V6.03063H200.9V8.31713H201.186C201.757 6.45935 203.215 5.68766 205.502 5.68766C206.188 5.68766 206.816 5.74482 207.016 5.80198L206.988 8.00274L205.53 7.94557C201.586 7.71692 201.043 9.80335 201.043 12.8044V20.5213H198.556Z" fill="#121212"/>
<path d="M1 6.98343C1 6.98343 3.90678 3.30566 7.80083 3.11084C12.7763 2.86265 10.0643 23.9613 4.2034 22.5519C-1.83524 21.0996 9.79133 1.48025 15.8938 3.11084C20.911 4.45197 19.9953 23.0753 14.9946 22.6136C8.36215 22.0011 18.8776 2.23089 25.5607 3.11084C31.601 3.9066 30.426 24.6927 24.1557 22.6213C17.7374 20.5009 25.7995 6.36542 38.0078 3.11084" stroke="white" stroke-width="1.99" stroke-linecap="round" stroke-linejoin="round"/>
<path d="M1 6.98343C1 6.98343 3.90678 3.30566 7.80083 3.11084C12.7763 2.86265 10.0643 23.9613 4.2034 22.5519C-1.83524 21.0996 9.79133 1.48025 15.8938 3.11084C20.911 4.45197 19.9953 23.0753 14.9946 22.6136C8.36215 22.0011 18.8776 2.23089 25.5607 3.11084C31.601 3.9066 30.426 24.6927 24.1557 22.6213C17.7374 20.5009 25.7995 6.36542 38.0078 3.11084" stroke="url(#paint0_linear_275_6534)" stroke-width="1.99" stroke-linecap="round" stroke-linejoin="round"/>
<path d="M1 6.98343C1 6.98343 3.90678 3.30566 7.80083 3.11084C12.7763 2.86265 10.0643 23.9613 4.2034 22.5519C-1.83524 21.0996 9.79133 1.48025 15.8938 3.11084C20.911 4.45197 19.9953 23.0753 14.9946 22.6136C8.36215 22.0011 18.8776 2.23089 25.5607 3.11084C31.601 3.9066 30.426 24.6927 24.1557 22.6213C17.7374 20.5009 25.7995 6.36542 38.0078 3.11084" stroke="url(#paint1_linear_275_6534)" stroke-width="1.99" stroke-linecap="round" stroke-linejoin="round"/>
<path fill-rule="evenodd" clip-rule="evenodd" d="M29.4731 0.724047C29.6205 0.197183 30.167 -0.110485 30.6939 0.036852L38.2762 2.15723C38.555 2.2352 38.7858 2.43127 38.9077 2.69385C39.0297 2.95643 39.0307 3.25923 38.9105 3.52261L35.4682 11.062C35.241 11.5596 34.6534 11.7789 34.1557 11.5516C33.6581 11.3244 33.4388 10.7368 33.666 10.2391L36.6273 3.75328L30.1603 1.9448C29.6335 1.79746 29.3258 1.25091 29.4731 0.724047Z" fill="white"/>
<path fill-rule="evenodd" clip-rule="evenodd" d="M29.4731 0.724047C29.6205 0.197183 30.167 -0.110485 30.6939 0.036852L38.2762 2.15723C38.555 2.2352 38.7858 2.43127 38.9077 2.69385C39.0297 2.95643 39.0307 3.25923 38.9105 3.52261L35.4682 11.062C35.241 11.5596 34.6534 11.7789 34.1557 11.5516C33.6581 11.3244 33.4388 10.7368 33.666 10.2391L36.6273 3.75328L30.1603 1.9448C29.6335 1.79746 29.3258 1.25091 29.4731 0.724047Z" fill="url(#paint2_linear_275_6534)"/>
<path fill-rule="evenodd" clip-rule="evenodd" d="M29.4731 0.724047C29.6205 0.197183 30.167 -0.110485 30.6939 0.036852L38.2762 2.15723C38.555 2.2352 38.7858 2.43127 38.9077 2.69385C39.0297 2.95643 39.0307 3.25923 38.9105 3.52261L35.4682 11.062C35.241 11.5596 34.6534 11.7789 34.1557 11.5516C33.6581 11.3244 33.4388 10.7368 33.666 10.2391L36.6273 3.75328L30.1603 1.9448C29.6335 1.79746 29.3258 1.25091 29.4731 0.724047Z" fill="url(#paint3_linear_275_6534)"/>
<defs>
<linearGradient id="paint0_linear_275_6534" x1="1" y1="12.8905" x2="38.0078" y2="12.8905" gradientUnits="userSpaceOnUse">
<stop stop-color="#A1C4FD"/>
<stop offset="1" stop-color="#C2E9FB"/>
</linearGradient>
<linearGradient id="paint1_linear_275_6534" x1="1" y1="12.8905" x2="38.0078" y2="12.8905" gradientUnits="userSpaceOnUse">
<stop stop-color="#4FACFE"/>
<stop offset="1" stop-color="#00F2FE"/>
</linearGradient>
<linearGradient id="paint2_linear_275_6534" x1="30.4271" y1="5.82069" x2="38.0094" y2="5.82069" gradientUnits="userSpaceOnUse">
<stop stop-color="#A1C4FD"/>
<stop offset="1" stop-color="#C2E9FB"/>
</linearGradient>
<linearGradient id="paint3_linear_275_6534" x1="2.89855" y1="16.9112" x2="39.0269" y2="3.20833" gradientUnits="userSpaceOnUse">
<stop stop-color="#4FACFE"/>
<stop offset="1" stop-color="#00F2FE"/>
</linearGradient>
</defs>
</svg>
