<svg width="117" height="117" viewBox="0 0 117 117" fill="none" xmlns="http://www.w3.org/2000/svg">
<path d="M43.8615 84.8975L84.3741 58.8307L43.8615 32.7638V84.8975ZM58.3303 116.757C50.3242 116.757 42.8004 115.236 35.759 112.195C28.7175 109.154 22.5923 105.027 17.3836 99.8136C12.1748 94.6002 8.0512 88.4696 5.01275 81.4219C1.9743 74.3742 0.455078 66.8438 0.455078 58.8307C0.455078 50.8175 1.9743 43.2871 5.01275 36.2394C8.0512 29.1917 12.1748 23.0611 17.3836 17.8478C22.5923 12.6344 28.7175 8.50713 35.759 5.466C42.8004 2.42486 50.3242 0.904297 58.3303 0.904297C66.3364 0.904297 73.8602 2.42486 80.9016 5.466C87.9431 8.50713 94.0682 12.6344 99.277 17.8478C104.486 23.0611 108.609 29.1917 111.648 36.2394C114.686 43.2871 116.206 50.8175 116.206 58.8307C116.206 66.8438 114.686 74.3742 111.648 81.4219C108.609 88.4696 104.486 94.6002 99.277 99.8136C94.0682 105.027 87.9431 109.154 80.9016 112.195C73.8602 115.236 66.3364 116.757 58.3303 116.757ZM58.3303 105.172C71.2558 105.172 82.2038 100.682 91.1745 91.7039C100.145 82.7253 104.63 71.7675 104.63 58.8307C104.63 45.8938 100.145 34.936 91.1745 25.9574C82.2038 16.9789 71.2558 12.4896 58.3303 12.4896C45.4048 12.4896 34.4568 16.9789 25.4861 25.9574C16.5155 34.936 12.0301 45.8938 12.0301 58.8307C12.0301 71.7675 16.5155 82.7253 25.4861 91.7039C34.4568 100.682 45.4048 105.172 58.3303 105.172Z" fill="white"/>
</svg>
